<svg width="669" height="659" viewBox="0 0 669 659" fill="none" xmlns="http://www.w3.org/2000/svg">
<path fill-rule="evenodd" clip-rule="evenodd" d="M19.5283 474.524C-10.6642 533.878 -0.133859 602.299 13.1608 659L64.5864 659C49.8623 598.957 41.0799 542.433 64.0947 497.192L64.0961 497.189C81.6023 462.766 117.192 437.648 158.248 421.817L158.255 421.814C187.08 410.689 216.19 404.17 247.283 397.207L247.284 397.207C261.793 393.957 276.733 390.611 292.279 386.656L292.287 386.654C339.132 374.716 390.112 356.73 429.54 320.437C448.427 303.056 467.769 277.713 470.65 246.058C474.973 198.673 441.361 160.675 411.163 139.282C398.363 130.214 384.602 122.407 372.141 115.338L372.14 115.337L372.139 115.337L372.132 115.333C369.856 114.042 367.624 112.775 365.448 111.53C350.783 103.136 338.003 95.3463 326.983 85.9456C301.833 64.4857 285.426 32.851 281.904 -1.23224e-05L231.699 -1.01279e-05C235.328 47.4375 258.257 93.0316 294.528 123.981L294.53 123.983C309.382 136.653 325.704 146.393 340.61 154.925C343.109 156.355 345.558 157.746 347.961 159.111C360.446 166.205 371.686 172.591 382.26 180.082C407.563 198.007 422.716 221.153 420.857 241.52L420.856 241.526C419.593 255.408 410.44 270.064 395.682 283.646L395.68 283.648C365.62 311.317 324.609 326.819 279.948 338.2C267.43 341.385 254.174 344.362 240.534 347.424C207.702 354.796 172.639 362.669 140.259 375.165C93.2052 393.309 44.8302 424.772 19.5283 474.524ZM441.28 -1.9289e-05C444.605 29.1032 467.248 56.7499 498.039 79.4937L498.046 79.4983C509.204 87.7458 520.505 95.0516 532.517 102.817L532.518 102.817L532.518 102.818L532.52 102.819L532.526 102.823C538.183 106.48 543.998 110.239 550.029 114.246C568.133 126.275 587.041 139.852 603.721 157.001L603.724 157.003C653.129 207.784 673.041 280.884 666.999 348.774C660.648 420.139 615.235 463.522 577.547 499.525L577.543 499.529C572.569 504.281 567.729 508.904 563.132 513.446C542.401 533.927 525.458 553.179 515.067 576.195C505.479 597.434 500.784 623.493 506.762 659L456.196 659C450.701 618.298 456.371 584.695 469.495 555.622C483.857 523.809 506.395 499.214 527.991 477.877C533.216 472.715 538.356 467.741 543.367 462.89C581.732 425.758 612.61 395.871 617.196 344.342C622.196 288.157 605.324 230.348 567.884 191.868L567.882 191.865C554.982 178.603 539.639 167.373 522.36 155.892C517.452 152.632 512.259 149.273 506.919 145.819L506.918 145.818C494.26 137.63 480.778 128.91 468.333 119.712L468.327 119.708C432.982 93.5998 394.485 52.8976 391.095 -1.70953e-05L441.28 -1.9289e-05Z" fill="#D9DCD5"/>
</svg>
